<?xml version="1.0" encoding="utf-8"?>
<!-- Generator: Adobe Illustrator 26.5.0, SVG Export Plug-In . SVG Version: 6.00 Build 0)  -->
<svg version="1.1" id="Layer_1" xmlns="http://www.w3.org/2000/svg" xmlns:xlink="http://www.w3.org/1999/xlink" x="0px" y="0px"
	 viewBox="0 0 70.87 42.52" style="enable-background:new 0 0 70.87 42.52;" xml:space="preserve">
<style type="text/css">
	.st0{fill:#196EFD;}
</style>
<g>
	<g>
		<path class="st0" d="M45.36,20.82c0-0.74-0.01-1.48-0.03-2.21c-0.02-0.65,0.04-1.38-0.13-2.01c-0.03-0.12-0.07-0.24-0.12-0.36
			c-0.32-0.75-0.86-1.35-1.56-1.76c-2.16-1.25-4.31-2.51-6.47-3.76c-1.23-0.71-2.48-0.71-3.72,0c-2.16,1.25-4.3,2.52-6.47,3.76
			c-1.22,0.69-1.83,1.74-1.85,3.1c-0.03,2.54-0.02,5.07,0,7.61c0.01,1.38,0.63,2.45,1.81,3.14c2.15,1.26,4.32,2.48,6.48,3.72
			c1.28,0.74,2.55,0.7,3.82-0.03c2.13-1.23,4.27-2.44,6.39-3.68c1.23-0.72,1.85-1.83,1.85-3.24C45.35,23.68,45.36,22.25,45.36,20.82
			z M27,17.85c-0.01-0.75,0.27-1.28,0.92-1.66c1.83-1.06,3.67-2.12,5.49-3.18c0.55-0.32,0.86-0.34,0.85,0.46
			c-0.03,2.46-0.01,4.91-0.01,7.37c0,0.39-0.02,0.72-0.44,0.93c-2.23,1.08-4.45,2.18-6.8,3.33C27.01,22.54,27.02,20.19,27,17.85z
			 M35.78,30.45c-0.38,0.21-0.89,0.2-1.3-0.03c-2.05-1.16-4.09-2.35-6.35-3.65c2.45-1.2,4.69-2.29,6.92-3.38
			c0.26-0.13,0.49-0.06,0.74,0.08c2.01,1.11,4.02,2.21,6.23,3.42C39.81,28.15,37.81,29.32,35.78,30.45z M42.61,24.93
			c-1.93-1.07-3.86-2.13-5.8-3.18c-0.42-0.23-0.54-0.55-0.53-1.01c0.01-2.42,0.02-4.84,0-7.26c-0.01-0.69,0.21-0.75,0.77-0.43
			c1.79,1.06,3.6,2.08,5.4,3.12c0.64,0.37,0.91,0.93,0.89,1.67c-0.03,1.08-0.01,2.16-0.01,3.24c0,1.12-0.02,2.23,0.01,3.35
			C43.35,25.03,43.24,25.29,42.61,24.93z"/>
		<path class="st0" d="M48.91,20.31h-0.55c0.11-0.01,0.23-0.01,0.36-0.01C48.78,20.3,48.85,20.31,48.91,20.31z"/>
		<path class="st0" d="M22.55,24.01H22.3C22.38,24.01,22.47,24.01,22.55,24.01z"/>
		<path class="st0" d="M49.71,17.91L49.71,17.91c0,0.37-0.3,0.67-0.67,0.67h-0.59c-0.37,0-0.67-0.3-0.67-0.67v-1.4
			c0-0.02,0-0.04,0-0.06c0.01-0.07,0.01-0.13,0.01-0.19c0-0.05,0-0.09-0.01-0.14c0-0.01,0-0.03,0-0.04v-1.01
			c0-0.48-0.26-0.93-0.68-1.16l-0.75-0.43l-7.05-4l-0.32-0.18l-0.01,0c-0.34-0.23-0.3-0.49-0.09-0.83c0.44-0.73,0.86-1.48,1.32-2.21
			c0.3-0.47,0.27-0.78-0.26-1.06c-0.92-0.49-1.8-1.06-2.72-1.55C36.17,3.07,35.05,2.99,34,3.59c-4.34,2.46-8.66,4.96-12.98,7.46
			c-1.18,0.68-1.63,1.8-1.64,3.11c-0.01,1.19-0.04,2.39,0.01,3.58c0.03,0.86-0.54,0.7-1.04,0.73c-0.54,0.03-0.93-0.02-0.91-0.75
			c0.05-1.49-0.02-2.99,0.05-4.48c0.08-1.65,0.94-2.92,2.31-3.76c2.64-1.61,5.32-3.14,8-4.69c1.64-0.95,3.29-1.9,4.94-2.83
			c1.75-0.99,3.56-1.05,5.34-0.11c1.58,0.83,3.1,1.78,4.66,2.65c0.47,0.26,0.55,0.48,0.25,0.94c-0.26,0.4-0.49,0.81-0.72,1.23
			C42.08,7,41.89,7.33,41.68,7.65c-0.34,0.51-0.22,0.75,0.29,1.02l0.99,0.58c0.4,0.25,0.79,0.51,1.19,0.76
			c0.75,0.42,1.51,0.85,2.26,1.27l1.37,0.8l1.46,0.86c0.28,0.16,0.45,0.46,0.45,0.78c0,0,0,0,0,0.01c0,0.55-0.01,1.09-0.01,1.64
			c-0.01,0.83-0.01,1.66,0.02,2.49C49.71,17.87,49.71,17.89,49.71,17.91z"/>
		<path class="st0" d="M53.59,24.76c-0.05,1.26-0.02,2.53-0.01,3.79c0,0.16-0.01,0.32-0.02,0.48c-0.12,1.45-0.79,2.63-1.97,3.44
			c-0.04,0.03-0.09,0.06-0.13,0.09l0,0l-14.07,8.11l-0.11,0.06c-0.01,0.01-0.02,0.01-0.03,0.01c-1.28,0.4-2.52,0.3-3.76-0.14
			c-0.26-0.09-0.52-0.2-0.78-0.32l0,0l-4.99-2.88l-0.01-0.01c-1.46-0.86-2.93-1.71-4.39-2.56c-0.67-0.39-1.34-0.78-2-1.17
			c-0.38-0.23-0.76-0.45-1.15-0.68c-0.26-0.15-0.51-0.32-0.74-0.5c-1.06-0.81-1.77-1.86-1.91-3.28c-0.01-0.11-0.02-0.22-0.02-0.33
			c-0.01-1.73-0.02-3.46-0.04-5.19c0-0.6-0.01-1.19-0.02-1.79c0-0.18,0-0.37-0.01-0.55v-0.01l0-0.93v-0.01
			c0.04-0.34,0.24-0.48,0.58-0.51h0l1.42,0l0.54,0h0.06c0.19,0,0.39,0,0.58,0c0.05,0,0.1,0,0.16,0c0.3,0,0.55-0.25,0.56-0.55
			c0-0.48,0.01-0.81,0-1.33v-0.84c0-0.12,0-0.23,0-0.35c0-0.39,0.01-0.79,0.01-1.18c0-0.21,0.01-0.42,0.03-0.62
			c0.13-1.44,0.77-2.58,1.97-3.42c0.13-0.09,0.27-0.18,0.42-0.27l3.09-1.78l6.76-3.9l0.26-0.15c1.07-0.62,2.41-0.62,3.45,0.04
			c0.08,0.05,0.15,0.1,0.22,0.15c0.1,0.08,0.2,0.16,0.3,0.24c0.07,0.06,0.24,0.18,0.24,0.29c0,0.15-0.21,0.35-0.3,0.46
			c-0.21,0.27-0.43,0.51-0.65,0.77c-0.02,0.03-0.04,0.05-0.06,0.07c-0.05,0.05-0.12,0.05-0.17,0.02l-0.75-0.43
			c-0.35-0.2-0.76-0.17-1.11,0.02c0,0-0.01,0-0.01,0.01c-0.12,0.05-0.24,0.11-0.36,0.18c-0.79,0.47-1.59,0.93-2.38,1.4l-0.04,0.02
			l-7.07,4.07c-0.08,0.05-0.16,0.09-0.24,0.14c-0.05,0.03-0.09,0.05-0.14,0.08c-0.89,0.52-1.44,1.47-1.45,2.5l0,0.12v0.01
			c0,0.04,0,0.08,0,0.12v0.01l0,4.1l0,1.54c0,0.01,0,0.02,0,0.03c-0.05,0.23-0.16,0.36-0.35,0.42c-0.01,0.01-0.03,0.01-0.05,0.01
			l-1.6,0h-0.01l-1.73,0c-0.22,0-0.25,0.19-0.25,0.43v1.35c0,1.5,0.05,2.99,0.08,4.49c0.03,1.33,0.75,2.56,1.91,3.22
			c0,0,2,1.15,2,1.15c1.75,1.01,3.51,2.02,5.26,3.03c1.89,1.09,3.78,2.18,5.67,3.27c0.69,0.4,1.55,0.4,2.24,0l0.02-0.01l0,0
			c1.56-0.51,2.96-1.59,4.37-2.41c1.61-0.93,3.21-1.86,4.82-2.79c1.04-0.6,2.09-1.17,3.11-1.78c0.62-0.37,1.22-0.76,1.83-1.15
			c0.54-0.34,0.98-1.13,0.97-1.77c-0.01-1.5-0.01-3.01,0.01-4.53c0.01-0.44,0.12-0.64,0.32-0.73h1.34c0.15,0.06,0.26,0.18,0.29,0.41
			c0,0.01,0,0.01,0,0.02C53.59,24.22,53.59,24.76,53.59,24.76z"/>
		<path class="st0" d="M53.29,23.7h-1.34c0.06-0.03,0.14-0.05,0.22-0.06c0.01,0,0.01,0,0.02,0H53c0,0,0.01,0,0.01,0
			C53.12,23.65,53.21,23.67,53.29,23.7z"/>
		<line class="st0" x1="19.33" y1="23.89" x2="19.33" y2="23.7"/>
		<path class="st0" d="M51.15,20.31"/>
		<path class="st0" d="M52.39,20.31"/>
		<path class="st0" d="M44.8,5.74"/>
		<path class="st0" d="M45.73,4.15"/>
		<path class="st0" d="M43.22,8.46"/>
		<path class="st0" d="M43.78,7.5"/>
		<path class="st0" d="M43.78,7.5"/>
		<line class="st0" x1="42.22" y1="6.65" x2="42.26" y2="6.67"/>
		<line class="st0" x1="45.03" y1="8.17" x2="44.49" y2="7.88"/>
		<path class="st0" d="M43.65,5.06"/>
		<path class="st0" d="M44.8,5.74"/>
		<line class="st0" x1="47.79" y1="16.47" x2="47.79" y2="16.09"/>
		<line class="st0" x1="47.79" y1="20.84" x2="47.79" y2="20.57"/>
		<line class="st0" x1="47.79" y1="16.47" x2="47.79" y2="16.09"/>
		<path class="st0" d="M53.58,13.25c0.02-1.61-0.66-2.8-2.02-3.6c-1.84-1.08-3.71-2.12-5.55-3.22l-0.73-0.43l-0.11-0.06
			c-0.2-0.12-0.46-0.05-0.57,0.15L44,7.12c-0.12,0.2-0.05,0.47,0.16,0.58l0.33,0.18c0.18,0.1,0.36,0.19,0.54,0.29l0.05,0.02
			c1.66,0.92,3.28,1.93,4.95,2.84c0.86,0.47,1.65,1.16,1.71,2.16c0.06,1.01,0.06,2.05,0.06,3.07c0,0.97,0.02,1.85,0,2.9
			c-0.01,0.46-0.18,0.83-0.42,1.01c-0.11,0.09-0.26,0.13-0.4,0.13h-2.51c-0.09,0-0.17,0-0.26,0.02c-0.19,0.04-0.32,0.11-0.42,0.23
			c-0.12,0.16-0.16,0.4-0.15,0.77c0.03,0.79,0.04,1.57,0.04,2.36c0,1.01-0.02,2.01-0.01,3.02c0.01,1.02-0.38,1.84-1.25,2.35
			c-3.22,1.87-6.46,3.72-9.69,5.56c-0.81,0.46-1.64,0.47-2.45,0.01c-2.91-1.65-5.86-3.3-8.7-5.03c-0.55-0.33-1.11-0.62-1.52-1.12
			c-0.03-0.03-0.05-0.07-0.08-0.1c-0.35-0.46-0.54-1.01-0.59-1.58c0-0.01,0-0.03,0-0.04v-2.63c0-0.24-0.19-0.43-0.43-0.43h-1.2
			c-0.24,0-0.43,0.19-0.43,0.43v2.18c0,0.44,0.03,0.88,0.11,1.31c0.24,1.39,1.05,2.52,2.27,3.23c0.58,0.34,1.17,0.64,1.76,0.96
			c2.23,1.33,4.51,2.6,6.69,4.01c2.4,1.55,4.59,1.37,6.95-0.17c2.56-1.66,5.26-3.09,7.92-4.6c1.79-1.01,2.69-2.5,2.65-4.56
			c-0.02-0.93,0.02-1.86,0-2.79c0-0.15-0.01-0.31-0.01-0.46c-0.03-0.66,0.14-0.92,0.86-0.9c0.72,0.02,1.4,0.05,2.13,0.03
			c0.73-0.03,0.96-0.19,0.94-0.93C53.54,18.71,53.54,15.98,53.58,13.25z"/>
		<line class="st0" x1="21.31" y1="27.08" x2="21.31" y2="26.31"/>
	</g>
</g>
</svg>
